<svg width="543" height="214" viewBox="0 0 543 214" fill="none" xmlns="http://www.w3.org/2000/svg">
<path d="M0.785156 165V0.289062H34.3164V137.02H117.691V165H0.785156Z" fill="#333333"/>
<path d="M122.517 103.148C122.517 92.5755 125.123 82.3424 130.334 72.4492C135.545 62.556 142.908 55.0039 152.423 49.793C162.015 44.582 172.701 41.9766 184.482 41.9766C202.683 41.9766 217.598 47.9049 229.228 59.7617C240.858 71.543 246.673 86.4583 246.673 104.508C246.673 122.708 240.783 137.812 229.002 149.82C217.296 161.753 202.532 167.719 184.709 167.719C173.683 167.719 163.147 165.227 153.103 160.242C143.134 155.258 135.545 147.97 130.334 138.379C125.123 128.712 122.517 116.969 122.517 103.148ZM155.142 104.848C155.142 116.78 157.974 125.918 163.638 132.262C169.302 138.605 176.288 141.777 184.595 141.777C192.903 141.777 199.851 138.605 205.439 132.262C211.103 125.918 213.935 116.704 213.935 104.621C213.935 92.8398 211.103 83.7773 205.439 77.4336C199.851 71.0898 192.903 67.918 184.595 67.918C176.288 67.918 169.302 71.0898 163.638 77.4336C157.974 83.7773 155.142 92.9154 155.142 104.848Z" fill="#333333"/>
<path d="M257.163 172.93L293.527 177.348C294.131 181.577 295.528 184.484 297.718 186.07C300.739 188.336 305.497 189.469 311.991 189.469C320.299 189.469 326.529 188.223 330.683 185.73C333.477 184.069 335.592 181.388 337.027 177.688C338.008 175.044 338.499 170.173 338.499 163.074V145.516C328.984 158.505 316.976 165 302.476 165C286.314 165 273.514 158.165 264.073 144.496C256.672 133.697 252.972 120.254 252.972 104.168C252.972 84.0039 257.805 68.5977 267.472 57.9492C277.214 47.3008 289.297 41.9766 303.722 41.9766C318.599 41.9766 330.872 48.5091 340.538 61.5742V44.6953H370.331V152.652C370.331 166.85 369.161 177.461 366.82 184.484C364.478 191.508 361.193 197.021 356.964 201.023C352.735 205.026 347.071 208.16 339.972 210.426C332.948 212.691 324.037 213.824 313.237 213.824C292.847 213.824 278.385 210.312 269.851 203.289C261.317 196.341 257.05 187.505 257.05 176.781C257.05 175.724 257.088 174.44 257.163 172.93ZM285.597 102.355C285.597 115.118 288.051 124.483 292.96 130.449C297.945 136.34 304.062 139.285 311.312 139.285C319.09 139.285 325.661 136.264 331.023 130.223C336.385 124.105 339.066 115.081 339.066 103.148C339.066 90.6875 336.498 81.4362 331.362 75.3945C326.227 69.3529 319.732 66.332 311.878 66.332C304.251 66.332 297.945 69.3151 292.96 75.2812C288.051 81.1719 285.597 90.1966 285.597 102.355Z" fill="#333333"/>
<path d="M382.973 103.148C382.973 92.5755 385.579 82.3424 390.79 72.4492C396.001 62.556 403.364 55.0039 412.88 49.793C422.471 44.582 433.157 41.9766 444.938 41.9766C463.139 41.9766 478.054 47.9049 489.684 59.7617C501.315 71.543 507.13 86.4583 507.13 104.508C507.13 122.708 501.239 137.812 489.458 149.82C477.752 161.753 462.988 167.719 445.165 167.719C434.139 167.719 423.604 165.227 413.559 160.242C403.591 155.258 396.001 147.97 390.79 138.379C385.579 128.712 382.973 116.969 382.973 103.148ZM415.598 104.848C415.598 116.78 418.43 125.918 424.095 132.262C429.759 138.605 436.744 141.777 445.052 141.777C453.359 141.777 460.307 138.605 465.895 132.262C471.559 125.918 474.391 116.704 474.391 104.621C474.391 92.8398 471.559 83.7773 465.895 77.4336C460.307 71.0898 453.359 67.918 445.052 67.918C436.744 67.918 429.759 71.0898 424.095 77.4336C418.43 83.7773 415.598 92.9154 415.598 104.848Z" fill="#333333"/>
<path d="M516.706 45.1602V48.8398H513.615V55.8706C513.615 57.2943 513.642 58.1266 513.696 58.3676C513.76 58.5975 513.894 58.7892 514.098 58.9425C514.313 59.0958 514.57 59.1725 514.871 59.1725C515.289 59.1725 515.896 59.0246 516.69 58.729L517.076 62.3101C516.024 62.77 514.833 63 513.503 63C512.687 63 511.952 62.8631 511.298 62.5893C510.643 62.3046 510.16 61.9432 509.849 61.5051C509.549 61.0561 509.339 60.4538 509.221 59.6982C509.125 59.1615 509.076 58.0773 509.076 56.4456V48.8398H507V45.1602H509.076V41.694L513.615 39V45.1602H516.706Z" fill="#333333"/>
<path d="M517.858 45.1602H522.027V47.5421C523.519 45.6913 525.295 44.7659 527.355 44.7659C528.449 44.7659 529.399 44.9959 530.204 45.4559C531.009 45.9158 531.669 46.6112 532.184 47.5421C532.935 46.6112 533.745 45.9158 534.614 45.4559C535.483 44.9959 536.411 44.7659 537.399 44.7659C538.654 44.7659 539.716 45.0287 540.586 45.5544C541.455 46.0691 542.104 46.8303 542.533 47.8378C542.844 48.5825 543 49.7871 543 51.4517V62.6057H538.477V52.6345C538.477 50.9042 538.321 49.7871 538.01 49.2834C537.592 48.6263 536.948 48.2977 536.079 48.2977C535.446 48.2977 534.85 48.4949 534.292 48.8891C533.734 49.2834 533.332 49.8638 533.085 50.6304C532.838 51.386 532.715 52.5852 532.715 54.2279V62.6057H528.192V53.0452C528.192 51.3477 528.111 50.2526 527.95 49.7598C527.789 49.2669 527.537 48.9001 527.194 48.6591C526.861 48.4182 526.405 48.2977 525.826 48.2977C525.128 48.2977 524.5 48.4894 523.943 48.8727C523.385 49.256 522.982 49.809 522.735 50.5318C522.499 51.2546 522.381 52.4538 522.381 54.1294V62.6057H517.858V45.1602Z" fill="#333333"/>
</svg>
