<svg width="543" height="214" viewBox="0 0 543 214" fill="none" xmlns="http://www.w3.org/2000/svg">
<g clip-path="url(#clip0_2207_2)">
<path d="M0.785156 165V0.289062H34.3164V137.02H117.691V165H0.785156Z" fill="white"/>
<path d="M122.518 103.148C122.518 92.5755 125.124 82.3424 130.335 72.4492C135.546 62.556 142.909 55.0039 152.424 49.793C162.016 44.582 172.702 41.9766 184.483 41.9766C202.684 41.9766 217.599 47.9049 229.229 59.7617C240.859 71.543 246.674 86.4583 246.674 104.508C246.674 122.708 240.784 137.812 229.003 149.82C217.297 161.753 202.533 167.719 184.71 167.719C173.684 167.719 163.148 165.227 153.104 160.242C143.135 155.258 135.546 147.97 130.335 138.379C125.124 128.712 122.518 116.969 122.518 103.148ZM155.143 104.848C155.143 116.78 157.975 125.918 163.639 132.262C169.303 138.605 176.289 141.777 184.596 141.777C192.904 141.777 199.852 138.605 205.44 132.262C211.104 125.918 213.936 116.704 213.936 104.621C213.936 92.8398 211.104 83.7773 205.44 77.4336C199.852 71.0898 192.904 67.918 184.596 67.918C176.289 67.918 169.303 71.0898 163.639 77.4336C157.975 83.7773 155.143 92.9154 155.143 104.848Z" fill="white"/>
<path d="M257.164 172.93L293.528 177.348C294.132 181.577 295.529 184.484 297.719 186.07C300.74 188.336 305.498 189.469 311.992 189.469C320.3 189.469 326.53 188.223 330.684 185.73C333.478 184.069 335.593 181.388 337.028 177.688C338.009 175.044 338.5 170.173 338.5 163.074V145.516C328.985 158.505 316.977 165 302.477 165C286.315 165 273.515 158.165 264.074 144.496C256.673 133.697 252.973 120.254 252.973 104.168C252.973 84.0039 257.806 68.5977 267.473 57.9492C277.215 47.3008 289.298 41.9766 303.723 41.9766C318.6 41.9766 330.873 48.5091 340.539 61.5742V44.6953H370.332V152.652C370.332 166.85 369.162 177.461 366.821 184.484C364.479 191.508 361.194 197.021 356.965 201.023C352.736 205.026 347.072 208.16 339.973 210.426C332.949 212.691 324.038 213.824 313.238 213.824C292.848 213.824 278.386 210.312 269.852 203.289C261.318 196.341 257.051 187.505 257.051 176.781C257.051 175.724 257.089 174.44 257.164 172.93ZM285.598 102.355C285.598 115.118 288.052 124.483 292.961 130.449C297.946 136.34 304.063 139.285 311.313 139.285C319.091 139.285 325.662 136.264 331.024 130.223C336.386 124.105 339.067 115.081 339.067 103.148C339.067 90.6875 336.499 81.4362 331.363 75.3945C326.228 69.3529 319.733 66.332 311.879 66.332C304.252 66.332 297.946 69.3151 292.961 75.2812C288.052 81.1719 285.598 90.1966 285.598 102.355Z" fill="white"/>
<path d="M382.973 103.148C382.973 92.5755 385.579 82.3424 390.79 72.4492C396.001 62.556 403.364 55.0039 412.88 49.793C422.471 44.582 433.157 41.9766 444.938 41.9766C463.139 41.9766 478.054 47.9049 489.684 59.7617C501.315 71.543 507.13 86.4583 507.13 104.508C507.13 122.708 501.239 137.812 489.458 149.82C477.752 161.753 462.988 167.719 445.165 167.719C434.139 167.719 423.604 165.227 413.559 160.242C403.591 155.258 396.001 147.97 390.79 138.379C385.579 128.712 382.973 116.969 382.973 103.148ZM415.598 104.848C415.598 116.78 418.43 125.918 424.095 132.262C429.759 138.605 436.744 141.777 445.052 141.777C453.359 141.777 460.307 138.605 465.895 132.262C471.559 125.918 474.391 116.704 474.391 104.621C474.391 92.8398 471.559 83.7773 465.895 77.4336C460.307 71.0898 453.359 67.918 445.052 67.918C436.744 67.918 429.759 71.0898 424.095 77.4336C418.43 83.7773 415.598 92.9154 415.598 104.848Z" fill="white"/>
<path d="M516.706 45.1602V48.8398H513.615V55.8706C513.615 57.2943 513.642 58.1266 513.696 58.3676C513.76 58.5975 513.894 58.7892 514.098 58.9425C514.313 59.0958 514.57 59.1725 514.871 59.1725C515.289 59.1725 515.896 59.0246 516.69 58.729L517.076 62.3101C516.024 62.77 514.833 63 513.503 63C512.687 63 511.952 62.8631 511.298 62.5893C510.643 62.3046 510.16 61.9432 509.849 61.5051C509.549 61.0561 509.339 60.4538 509.221 59.6982C509.125 59.1615 509.076 58.0773 509.076 56.4456V48.8398H507V45.1602H509.076V41.694L513.615 39V45.1602H516.706Z" fill="white"/>
<path d="M517.857 45.1599H522.026V47.5418C523.518 45.691 525.294 44.7656 527.354 44.7656C528.448 44.7656 529.398 44.9956 530.203 45.4556C531.008 45.9155 531.668 46.6109 532.183 47.5418C532.934 46.6109 533.744 45.9155 534.613 45.4556C535.482 44.9956 536.41 44.7656 537.398 44.7656C538.653 44.7656 539.715 45.0284 540.585 45.5541C541.454 46.0688 542.103 46.83 542.532 47.8375C542.843 48.5822 542.999 49.7868 542.999 51.4514V62.6054H538.476V52.6342C538.476 50.9039 538.32 49.7868 538.009 49.2831C537.591 48.626 536.947 48.2974 536.078 48.2974C535.445 48.2974 534.849 48.4946 534.291 48.8888C533.733 49.2831 533.331 49.8635 533.084 50.6301C532.837 51.3857 532.714 52.5849 532.714 54.2276V62.6054H528.191V53.0449C528.191 51.3474 528.11 50.2523 527.949 49.7595C527.788 49.2666 527.536 48.8998 527.193 48.6588C526.86 48.4179 526.404 48.2974 525.825 48.2974C525.127 48.2974 524.499 48.4891 523.942 48.8724C523.384 49.2557 522.981 49.8087 522.734 50.5315C522.498 51.2543 522.38 52.4535 522.38 54.1291V62.6054H517.857V45.1599Z" fill="white"/>
</g>
<defs>
<clipPath id="clip0_2207_2">
<rect width="543" height="214" fill="white"/>
</clipPath>
</defs>
</svg>
